%TF.GenerationSoftware,KiCad,Pcbnew,7.0.8*%
%TF.CreationDate,2024-07-05T20:29:51-04:00*%
%TF.ProjectId,psp_2ndstick_pcb,7073705f-326e-4647-9374-69636b5f7063,rev?*%
%TF.SameCoordinates,Original*%
%TF.FileFunction,Legend,Bot*%
%TF.FilePolarity,Positive*%
%FSLAX46Y46*%
G04 Gerber Fmt 4.6, Leading zero omitted, Abs format (unit mm)*
G04 Created by KiCad (PCBNEW 7.0.8) date 2024-07-05 20:29:51*
%MOMM*%
%LPD*%
G01*
G04 APERTURE LIST*
%ADD10C,0.200000*%
G04 APERTURE END LIST*
D10*
X176974434Y-76010742D02*
X176974434Y-76391695D01*
X177241101Y-75591695D02*
X176974434Y-76010742D01*
X176974434Y-76010742D02*
X176707768Y-75591695D01*
X178841101Y-73091695D02*
X178574434Y-73891695D01*
X178574434Y-73891695D02*
X178307768Y-73091695D01*
X177583958Y-73815504D02*
X177622054Y-73853600D01*
X177622054Y-73853600D02*
X177736339Y-73891695D01*
X177736339Y-73891695D02*
X177812530Y-73891695D01*
X177812530Y-73891695D02*
X177926816Y-73853600D01*
X177926816Y-73853600D02*
X178003006Y-73777409D01*
X178003006Y-73777409D02*
X178041101Y-73701219D01*
X178041101Y-73701219D02*
X178079197Y-73548838D01*
X178079197Y-73548838D02*
X178079197Y-73434552D01*
X178079197Y-73434552D02*
X178041101Y-73282171D01*
X178041101Y-73282171D02*
X178003006Y-73205980D01*
X178003006Y-73205980D02*
X177926816Y-73129790D01*
X177926816Y-73129790D02*
X177812530Y-73091695D01*
X177812530Y-73091695D02*
X177736339Y-73091695D01*
X177736339Y-73091695D02*
X177622054Y-73129790D01*
X177622054Y-73129790D02*
X177583958Y-73167885D01*
X176783958Y-73815504D02*
X176822054Y-73853600D01*
X176822054Y-73853600D02*
X176936339Y-73891695D01*
X176936339Y-73891695D02*
X177012530Y-73891695D01*
X177012530Y-73891695D02*
X177126816Y-73853600D01*
X177126816Y-73853600D02*
X177203006Y-73777409D01*
X177203006Y-73777409D02*
X177241101Y-73701219D01*
X177241101Y-73701219D02*
X177279197Y-73548838D01*
X177279197Y-73548838D02*
X177279197Y-73434552D01*
X177279197Y-73434552D02*
X177241101Y-73282171D01*
X177241101Y-73282171D02*
X177203006Y-73205980D01*
X177203006Y-73205980D02*
X177126816Y-73129790D01*
X177126816Y-73129790D02*
X177012530Y-73091695D01*
X177012530Y-73091695D02*
X176936339Y-73091695D01*
X176936339Y-73091695D02*
X176822054Y-73129790D01*
X176822054Y-73129790D02*
X176783958Y-73167885D01*
X183216041Y-75103600D02*
X183101755Y-75141695D01*
X183101755Y-75141695D02*
X182911279Y-75141695D01*
X182911279Y-75141695D02*
X182835088Y-75103600D01*
X182835088Y-75103600D02*
X182796993Y-75065504D01*
X182796993Y-75065504D02*
X182758898Y-74989314D01*
X182758898Y-74989314D02*
X182758898Y-74913123D01*
X182758898Y-74913123D02*
X182796993Y-74836933D01*
X182796993Y-74836933D02*
X182835088Y-74798838D01*
X182835088Y-74798838D02*
X182911279Y-74760742D01*
X182911279Y-74760742D02*
X183063660Y-74722647D01*
X183063660Y-74722647D02*
X183139850Y-74684552D01*
X183139850Y-74684552D02*
X183177945Y-74646457D01*
X183177945Y-74646457D02*
X183216041Y-74570266D01*
X183216041Y-74570266D02*
X183216041Y-74494076D01*
X183216041Y-74494076D02*
X183177945Y-74417885D01*
X183177945Y-74417885D02*
X183139850Y-74379790D01*
X183139850Y-74379790D02*
X183063660Y-74341695D01*
X183063660Y-74341695D02*
X182873183Y-74341695D01*
X182873183Y-74341695D02*
X182758898Y-74379790D01*
X181958897Y-75065504D02*
X181996993Y-75103600D01*
X181996993Y-75103600D02*
X182111278Y-75141695D01*
X182111278Y-75141695D02*
X182187469Y-75141695D01*
X182187469Y-75141695D02*
X182301755Y-75103600D01*
X182301755Y-75103600D02*
X182377945Y-75027409D01*
X182377945Y-75027409D02*
X182416040Y-74951219D01*
X182416040Y-74951219D02*
X182454136Y-74798838D01*
X182454136Y-74798838D02*
X182454136Y-74684552D01*
X182454136Y-74684552D02*
X182416040Y-74532171D01*
X182416040Y-74532171D02*
X182377945Y-74455980D01*
X182377945Y-74455980D02*
X182301755Y-74379790D01*
X182301755Y-74379790D02*
X182187469Y-74341695D01*
X182187469Y-74341695D02*
X182111278Y-74341695D01*
X182111278Y-74341695D02*
X181996993Y-74379790D01*
X181996993Y-74379790D02*
X181958897Y-74417885D01*
X181235088Y-75141695D02*
X181616040Y-75141695D01*
X181616040Y-75141695D02*
X181616040Y-74341695D01*
X178460149Y-76879790D02*
X178536339Y-76841695D01*
X178536339Y-76841695D02*
X178650625Y-76841695D01*
X178650625Y-76841695D02*
X178764911Y-76879790D01*
X178764911Y-76879790D02*
X178841101Y-76955980D01*
X178841101Y-76955980D02*
X178879196Y-77032171D01*
X178879196Y-77032171D02*
X178917292Y-77184552D01*
X178917292Y-77184552D02*
X178917292Y-77298838D01*
X178917292Y-77298838D02*
X178879196Y-77451219D01*
X178879196Y-77451219D02*
X178841101Y-77527409D01*
X178841101Y-77527409D02*
X178764911Y-77603600D01*
X178764911Y-77603600D02*
X178650625Y-77641695D01*
X178650625Y-77641695D02*
X178574434Y-77641695D01*
X178574434Y-77641695D02*
X178460149Y-77603600D01*
X178460149Y-77603600D02*
X178422053Y-77565504D01*
X178422053Y-77565504D02*
X178422053Y-77298838D01*
X178422053Y-77298838D02*
X178574434Y-77298838D01*
X178079196Y-77641695D02*
X178079196Y-76841695D01*
X178079196Y-76841695D02*
X177622053Y-77641695D01*
X177622053Y-77641695D02*
X177622053Y-76841695D01*
X177241101Y-77641695D02*
X177241101Y-76841695D01*
X177241101Y-76841695D02*
X177050625Y-76841695D01*
X177050625Y-76841695D02*
X176936339Y-76879790D01*
X176936339Y-76879790D02*
X176860149Y-76955980D01*
X176860149Y-76955980D02*
X176822054Y-77032171D01*
X176822054Y-77032171D02*
X176783958Y-77184552D01*
X176783958Y-77184552D02*
X176783958Y-77298838D01*
X176783958Y-77298838D02*
X176822054Y-77451219D01*
X176822054Y-77451219D02*
X176860149Y-77527409D01*
X176860149Y-77527409D02*
X176936339Y-77603600D01*
X176936339Y-77603600D02*
X177050625Y-77641695D01*
X177050625Y-77641695D02*
X177241101Y-77641695D01*
X183292231Y-73091695D02*
X183025564Y-73891695D01*
X183025564Y-73891695D02*
X182758898Y-73091695D01*
X182035088Y-73815504D02*
X182073184Y-73853600D01*
X182073184Y-73853600D02*
X182187469Y-73891695D01*
X182187469Y-73891695D02*
X182263660Y-73891695D01*
X182263660Y-73891695D02*
X182377946Y-73853600D01*
X182377946Y-73853600D02*
X182454136Y-73777409D01*
X182454136Y-73777409D02*
X182492231Y-73701219D01*
X182492231Y-73701219D02*
X182530327Y-73548838D01*
X182530327Y-73548838D02*
X182530327Y-73434552D01*
X182530327Y-73434552D02*
X182492231Y-73282171D01*
X182492231Y-73282171D02*
X182454136Y-73205980D01*
X182454136Y-73205980D02*
X182377946Y-73129790D01*
X182377946Y-73129790D02*
X182263660Y-73091695D01*
X182263660Y-73091695D02*
X182187469Y-73091695D01*
X182187469Y-73091695D02*
X182073184Y-73129790D01*
X182073184Y-73129790D02*
X182035088Y-73167885D01*
X181235088Y-73815504D02*
X181273184Y-73853600D01*
X181273184Y-73853600D02*
X181387469Y-73891695D01*
X181387469Y-73891695D02*
X181463660Y-73891695D01*
X181463660Y-73891695D02*
X181577946Y-73853600D01*
X181577946Y-73853600D02*
X181654136Y-73777409D01*
X181654136Y-73777409D02*
X181692231Y-73701219D01*
X181692231Y-73701219D02*
X181730327Y-73548838D01*
X181730327Y-73548838D02*
X181730327Y-73434552D01*
X181730327Y-73434552D02*
X181692231Y-73282171D01*
X181692231Y-73282171D02*
X181654136Y-73205980D01*
X181654136Y-73205980D02*
X181577946Y-73129790D01*
X181577946Y-73129790D02*
X181463660Y-73091695D01*
X181463660Y-73091695D02*
X181387469Y-73091695D01*
X181387469Y-73091695D02*
X181273184Y-73129790D01*
X181273184Y-73129790D02*
X181235088Y-73167885D01*
X183216041Y-76353600D02*
X183101755Y-76391695D01*
X183101755Y-76391695D02*
X182911279Y-76391695D01*
X182911279Y-76391695D02*
X182835088Y-76353600D01*
X182835088Y-76353600D02*
X182796993Y-76315504D01*
X182796993Y-76315504D02*
X182758898Y-76239314D01*
X182758898Y-76239314D02*
X182758898Y-76163123D01*
X182758898Y-76163123D02*
X182796993Y-76086933D01*
X182796993Y-76086933D02*
X182835088Y-76048838D01*
X182835088Y-76048838D02*
X182911279Y-76010742D01*
X182911279Y-76010742D02*
X183063660Y-75972647D01*
X183063660Y-75972647D02*
X183139850Y-75934552D01*
X183139850Y-75934552D02*
X183177945Y-75896457D01*
X183177945Y-75896457D02*
X183216041Y-75820266D01*
X183216041Y-75820266D02*
X183216041Y-75744076D01*
X183216041Y-75744076D02*
X183177945Y-75667885D01*
X183177945Y-75667885D02*
X183139850Y-75629790D01*
X183139850Y-75629790D02*
X183063660Y-75591695D01*
X183063660Y-75591695D02*
X182873183Y-75591695D01*
X182873183Y-75591695D02*
X182758898Y-75629790D01*
X182416040Y-76391695D02*
X182416040Y-75591695D01*
X182416040Y-75591695D02*
X182225564Y-75591695D01*
X182225564Y-75591695D02*
X182111278Y-75629790D01*
X182111278Y-75629790D02*
X182035088Y-75705980D01*
X182035088Y-75705980D02*
X181996993Y-75782171D01*
X181996993Y-75782171D02*
X181958897Y-75934552D01*
X181958897Y-75934552D02*
X181958897Y-76048838D01*
X181958897Y-76048838D02*
X181996993Y-76201219D01*
X181996993Y-76201219D02*
X182035088Y-76277409D01*
X182035088Y-76277409D02*
X182111278Y-76353600D01*
X182111278Y-76353600D02*
X182225564Y-76391695D01*
X182225564Y-76391695D02*
X182416040Y-76391695D01*
X181654136Y-76163123D02*
X181273183Y-76163123D01*
X181730326Y-76391695D02*
X181463659Y-75591695D01*
X181463659Y-75591695D02*
X181196993Y-76391695D01*
X177279197Y-74341695D02*
X176745863Y-75141695D01*
X176745863Y-74341695D02*
X177279197Y-75141695D01*
X182758898Y-76879790D02*
X182835088Y-76841695D01*
X182835088Y-76841695D02*
X182949374Y-76841695D01*
X182949374Y-76841695D02*
X183063660Y-76879790D01*
X183063660Y-76879790D02*
X183139850Y-76955980D01*
X183139850Y-76955980D02*
X183177945Y-77032171D01*
X183177945Y-77032171D02*
X183216041Y-77184552D01*
X183216041Y-77184552D02*
X183216041Y-77298838D01*
X183216041Y-77298838D02*
X183177945Y-77451219D01*
X183177945Y-77451219D02*
X183139850Y-77527409D01*
X183139850Y-77527409D02*
X183063660Y-77603600D01*
X183063660Y-77603600D02*
X182949374Y-77641695D01*
X182949374Y-77641695D02*
X182873183Y-77641695D01*
X182873183Y-77641695D02*
X182758898Y-77603600D01*
X182758898Y-77603600D02*
X182720802Y-77565504D01*
X182720802Y-77565504D02*
X182720802Y-77298838D01*
X182720802Y-77298838D02*
X182873183Y-77298838D01*
X182377945Y-77641695D02*
X182377945Y-76841695D01*
X182377945Y-76841695D02*
X181920802Y-77641695D01*
X181920802Y-77641695D02*
X181920802Y-76841695D01*
X181539850Y-77641695D02*
X181539850Y-76841695D01*
X181539850Y-76841695D02*
X181349374Y-76841695D01*
X181349374Y-76841695D02*
X181235088Y-76879790D01*
X181235088Y-76879790D02*
X181158898Y-76955980D01*
X181158898Y-76955980D02*
X181120803Y-77032171D01*
X181120803Y-77032171D02*
X181082707Y-77184552D01*
X181082707Y-77184552D02*
X181082707Y-77298838D01*
X181082707Y-77298838D02*
X181120803Y-77451219D01*
X181120803Y-77451219D02*
X181158898Y-77527409D01*
X181158898Y-77527409D02*
X181235088Y-77603600D01*
X181235088Y-77603600D02*
X181349374Y-77641695D01*
X181349374Y-77641695D02*
X181539850Y-77641695D01*
M02*
