%TF.GenerationSoftware,KiCad,Pcbnew,7.0.8*%
%TF.CreationDate,2024-07-05T20:29:51-04:00*%
%TF.ProjectId,psp_2ndstick_pcb,7073705f-326e-4647-9374-69636b5f7063,rev?*%
%TF.SameCoordinates,Original*%
%TF.FileFunction,Legend,Top*%
%TF.FilePolarity,Positive*%
%FSLAX46Y46*%
G04 Gerber Fmt 4.6, Leading zero omitted, Abs format (unit mm)*
G04 Created by KiCad (PCBNEW 7.0.8) date 2024-07-05 20:29:51*
%MOMM*%
%LPD*%
G01*
G04 APERTURE LIST*
%ADD10C,0.150000*%
%ADD11C,0.120000*%
G04 APERTURE END LIST*
D10*
X179238095Y-73954819D02*
X179238095Y-74764342D01*
X179238095Y-74764342D02*
X179285714Y-74859580D01*
X179285714Y-74859580D02*
X179333333Y-74907200D01*
X179333333Y-74907200D02*
X179428571Y-74954819D01*
X179428571Y-74954819D02*
X179619047Y-74954819D01*
X179619047Y-74954819D02*
X179714285Y-74907200D01*
X179714285Y-74907200D02*
X179761904Y-74859580D01*
X179761904Y-74859580D02*
X179809523Y-74764342D01*
X179809523Y-74764342D02*
X179809523Y-73954819D01*
X180809523Y-74954819D02*
X180238095Y-74954819D01*
X180523809Y-74954819D02*
X180523809Y-73954819D01*
X180523809Y-73954819D02*
X180428571Y-74097676D01*
X180428571Y-74097676D02*
X180333333Y-74192914D01*
X180333333Y-74192914D02*
X180238095Y-74240533D01*
D11*
%TO.C,J1*%
X183390000Y-72700000D02*
X184500000Y-72700000D01*
X183390000Y-73460000D02*
X183390000Y-72700000D01*
X183390000Y-74220000D02*
X183390000Y-77965000D01*
X183390000Y-74220000D02*
X183936529Y-74220000D01*
X183390000Y-77965000D02*
X184192470Y-77965000D01*
X184807530Y-77965000D02*
X185610000Y-77965000D01*
X185063471Y-74220000D02*
X185610000Y-74220000D01*
X185610000Y-74220000D02*
X185610000Y-77965000D01*
D10*
%TO.C,U1*%
X178375000Y-72875000D02*
X178375000Y-73050000D01*
X178375000Y-72875000D02*
X181625000Y-72875000D01*
X178375000Y-73050000D02*
X177300000Y-73050000D01*
X178375000Y-76125000D02*
X178375000Y-75850000D01*
X178375000Y-76125000D02*
X181625000Y-76125000D01*
X181625000Y-72875000D02*
X181625000Y-73150000D01*
X181625000Y-76125000D02*
X181625000Y-75850000D01*
D11*
%TO.C,C1*%
X180183335Y-77860000D02*
X179951665Y-77860000D01*
X180183335Y-77140000D02*
X179951665Y-77140000D01*
%TO.C,J2*%
X174390000Y-72700000D02*
X175500000Y-72700000D01*
X174390000Y-73460000D02*
X174390000Y-72700000D01*
X174390000Y-74220000D02*
X174390000Y-77965000D01*
X174390000Y-74220000D02*
X174936529Y-74220000D01*
X174390000Y-77965000D02*
X175192470Y-77965000D01*
X175807530Y-77965000D02*
X176610000Y-77965000D01*
X176063471Y-74220000D02*
X176610000Y-74220000D01*
X176610000Y-74220000D02*
X176610000Y-77965000D01*
%TD*%
M02*
